ModelForces
version=1
nRows=31
nColumns=15
inDegrees=no

This file contains the forces exerted on a model during a simulation.

A force is a generalized force, meaning that it can be either a force (N) or a torque (Nm).

Units are S.I. units (second, meters, Newtons, ...)
Angles are in degrees.

endheader
time	Liu	Thelen	contactForce.block.force.X	contactForce.block.force.Y	contactForce.block.force.Z	contactForce.block.torque.X	contactForce.block.torque.Y	contactForce.block.torque.Z	contactForce.ground.force.X	contactForce.ground.force.Y	contactForce.ground.force.Z	contactForce.ground.torque.X	contactForce.ground.torque.Y	contactForce.ground.torque.Z
      0.00000000	      4.00000000	      2.00000000	      0.00000000	      0.00000000	      0.00000000	      0.00000000	      0.00000000	      0.00000000	      0.00000000	      0.00000000	      0.00000000	      0.00000000	      0.00000000	      0.00000000
      0.00302965	      3.99999103	      3.88924027	      0.00000000	     43.29696866	     -0.33053587	      0.01651249	      0.00000000	      0.00000000	     -0.00000000	    -43.29696866	      0.33053587	     -0.00001955	     -0.00000000	     -0.00000000
      0.00605931	      3.99997464	      6.38490237	      0.00000000	    154.08873012	     -0.80119717	      0.03993646	      0.00000000	      0.00000000	     -0.00000000	   -154.08873012	      0.80119717	     -0.00020144	     -0.00000000	     -0.00000000
      0.00975931	      3.99998004	      7.72626665	      0.00000000	    308.59083024	      3.51856002	     -0.17484260	     -0.00000000	      0.00000000	     -0.00000000	   -308.59083024	     -3.51856002	     -0.00035695	      0.00000000	     -0.00000000
      0.01345931	      4.28920913	      8.12699885	      0.00000000	    390.36963767	     27.66360457	     -1.37238183	     -0.00000000	      0.00000000	     -0.00000000	   -390.36963767	    -27.66360457	      0.00206075	      0.00000000	     -0.00000000
      0.01715931	      5.54937505	      7.92189685	      0.00000000	    346.75117939	     10.58569410	     -0.52561308	     -0.00000000	      0.00000000	     -0.00000000	   -346.75117939	    -10.58569410	      0.01011747	      0.00000000	     -0.00000000
      0.02085931	      7.41747544	      7.62957646	      0.00000000	    206.04742630	      1.33560949	     -0.06650516	     -0.00000000	      0.00000000	     -0.00000000	   -206.04742630	     -1.33560949	      0.01316518	      0.00000000	     -0.00000000
      0.02455931	      9.41880025	      7.48276238	      0.00000000	     59.01650298	      0.42066192	     -0.02100826	     -0.00000000	      0.00000000	     -0.00000000	    -59.01650298	     -0.42066192	      0.00590446	      0.00000000	     -0.00000000
      0.02825931	     11.41835150	      7.44273989	      0.00000000	      0.43756611	      0.00840792	     -0.00042039	     -0.00000000	      0.00000000	     -0.00000000	     -0.43756611	     -0.00840792	      0.00005914	      0.00000000	     -0.00000000
      0.03195931	     13.32128264	      7.47546107	      0.00000000	     68.15817964	      2.43172324	     -0.12142047	     -0.00000000	      0.00000000	     -0.00000000	    -68.15817964	     -2.43172324	      0.01143279	      0.00000000	     -0.00000000
      0.03565931	     15.16135954	      8.94325359	      0.00000000	    218.49987274	      8.22857481	     -0.40963158	     -0.00000000	      0.00000000	     -0.00000000	   -218.49987274	     -8.22857481	      0.04335851	      0.00000000	     -0.00000000
      0.03935931	     17.10977953	      9.51854889	      0.00000000	    354.30662509	      9.80260130	     -0.48665783	     -0.00000000	      0.00000000	     -0.00000000	   -354.30662509	     -9.80260130	      0.08153911	      0.00000000	     -0.00000000
      0.04305931	     19.18725976	     11.10477763	      0.00000000	    387.88954264	      9.19350669	     -0.45610896	     -0.00000000	      0.00000000	     -0.00000000	   -387.88954264	     -9.19350669	      0.10210055	      0.00000000	     -0.00000000
      0.04675931	     21.32449768	     12.25910739	      0.00000000	    297.74063463	      7.41132460	     -0.36835875	     -0.00000000	      0.00000000	     -0.00000000	   -297.74063463	     -7.41132460	      0.08830038	      0.00000000	     -0.00000000
      0.05045931	     23.43537797	     12.76541172	      0.00000000	    142.13164863	      5.35514184	     -0.26699564	     -0.00000000	      0.00000000	     -0.00000000	   -142.13164863	     -5.35514184	      0.04672247	      0.00000000	     -0.00000000
      0.05415931	     25.34508717	     13.06627456	      0.00000000	     21.38318354	      1.32600756	     -0.06627202	     -0.00000000	      0.00000000	     -0.00000000	    -21.38318354	     -1.32600756	      0.00763603	      0.00000000	     -0.00000000
      0.05741064	     26.65253036	     15.49878979	      0.00000000	      7.36392073	      0.55274604	     -0.02763323	     -0.00000000	      0.00000000	     -0.00000000	     -7.36392073	     -0.55274604	      0.00277009	      0.00000000	     -0.00000000
      0.06066197	     27.58057781	     17.71705783	      0.00000000	     88.74185036	      6.15074758	     -0.30699175	     -0.00000000	      0.00000000	     -0.00000000	    -88.74185036	     -6.15074758	      0.03456747	      0.00000000	     -0.00000000
      0.06436197	     28.51500222	     18.91393386	      0.00000000	    243.56175790	     17.50989327	     -0.87123173	     -0.00000000	      0.00000000	     -0.00000000	   -243.56175790	    -17.50989327	      0.09809979	      0.00000000	     -0.00000000
      0.06806197	     29.83984388	     19.27245055	      0.00000000	    367.64000865	     25.00394953	     -1.24100694	     -0.00000000	      0.00000000	     -0.00000000	   -367.64000865	    -25.00394953	      0.15489376	      0.00000000	     -0.00000000
      0.07176197	     31.79722242	     19.19606435	      0.00000000	    380.88907170	     16.39090559	     -0.81330128	     -0.00000000	      0.00000000	     -0.00000000	   -380.88907170	    -16.39090559	      0.17079980	      0.00000000	     -0.00000000
      0.07546197	     34.01289634	     19.08272050	      0.00000000	    274.93575950	     11.82920138	     -0.58820650	     -0.00000000	      0.00000000	     -0.00000000	   -274.93575950	    -11.82920138	      0.13158208	      0.00000000	     -0.00000000
      0.07916197	     36.11674463	     19.09260862	      0.00000000	    118.22115413	      7.24278319	     -0.36128257	     -0.00000000	      0.00000000	     -0.00000000	   -118.22115413	     -7.24278319	      0.05989318	      0.00000000	     -0.00000000
      0.08286197	     37.74652226	     22.15617658	      0.00000000	     11.77468291	      0.87119255	     -0.04354937	     -0.00000000	      0.00000000	     -0.00000000	    -11.77468291	     -0.87119255	      0.00621565	      0.00000000	     -0.00000000
      0.08656197	     38.59864786	     24.84632076	      0.00000000	     24.33202855	      0.96712151	     -0.04833255	     -0.00000000	      0.00000000	     -0.00000000	    -24.33202855	     -0.96712151	      0.01311142	      0.00000000	     -0.00000000
      0.09026197	     38.75906380	     26.30377462	      0.00000000	    147.76067958	     -2.38102614	      0.11869963	      0.00000000	      0.00000000	     -0.00000000	   -147.76067958	      2.38102614	      0.07991999	     -0.00000000	     -0.00000000
      0.09396197	     38.02525621	     27.32399640	      0.00000000	    302.36068127	    -22.64816046	      1.12556261	      0.00000000	      0.00000000	     -0.00000000	   -302.36068127	     22.64816046	      0.16065323	     -0.00000000	     -0.00000000
      0.09766197	     35.85556656	     28.44313171	      0.00000000	    388.22639720	     -2.91805473	      0.14476995	      0.00000000	      0.00000000	     -0.00000000	   -388.22639720	      2.91805473	      0.19526123	     -0.00000000	     -0.00000000
      0.10136197	     33.03110509	     29.38532488	     -0.00000000	    350.02854048	      3.41257168	     -0.16943377	     -0.00000000	      0.00000000	      0.00000000	   -350.02854048	     -3.41257168	      0.16286144	      0.00000000	     -0.00000000
      0.10506197	     30.23201588	     29.92202952	     -0.00000000	    212.58994164	      1.47321083	     -0.07334722	     -0.00000000	      0.00000000	      0.00000000	   -212.58994164	     -1.47321083	      0.09076459	      0.00000000	     -0.00000000
      0.10876197	     27.57306091	     30.18346304	      0.00000000	     64.58599092	     -0.06853226	      0.00342219	      0.00000000	      0.00000000	     -0.00000000	    -64.58599092	      0.06853226	      0.02515151	     -0.00000000	     -0.00000000
